<svg width="114" height="37" viewBox="0 0 114 37" fill="none" xmlns="http://www.w3.org/2000/svg">
<path d="M7.06408 21.504H17.6241C17.5601 20.192 17.0801 19.088 16.1841 18.192C15.3201 17.296 14.0401 16.848 12.3441 16.848C10.8081 16.848 9.56008 17.328 8.60008 18.288C7.64008 19.248 7.12808 20.32 7.06408 21.504ZM18.2481 27.648L23.5761 29.232C22.9361 31.408 21.6721 33.2 19.7841 34.608C17.9281 36.016 15.6081 36.72 12.8241 36.72C9.43208 36.72 6.55208 35.584 4.18408 33.312C1.81608 31.008 0.63208 27.936 0.63208 24.096C0.63208 20.448 1.78408 17.472 4.08808 15.168C6.39208 12.832 9.11208 11.664 12.2481 11.664C15.8961 11.664 18.7441 12.752 20.7921 14.928C22.8721 17.104 23.9121 20.096 23.9121 23.904C23.9121 24.16 23.8961 24.448 23.8641 24.768C23.8641 25.088 23.8641 25.344 23.8641 25.536L23.8161 25.872H6.92008C6.98408 27.408 7.59208 28.688 8.74408 29.712C9.89608 30.736 11.2721 31.248 12.8721 31.248C15.5921 31.248 17.3841 30.048 18.2481 27.648Z" fill="#0D0D0D"/>
<path d="M35.3233 36H28.9393V1.248H35.3233V36Z" fill="#0D0D0D"/>
<path d="M48.5421 36H42.1581V12.384H48.5421V36ZM41.3901 4.656C41.3901 3.568 41.7741 2.64 42.5421 1.872C43.3101 1.072 44.2381 0.671997 45.3261 0.671997C46.4141 0.671997 47.3421 1.056 48.1101 1.824C48.8781 2.592 49.2621 3.536 49.2621 4.656C49.2621 5.712 48.8781 6.624 48.1101 7.392C47.3421 8.16 46.4141 8.544 45.3261 8.544C44.2381 8.544 43.3101 8.16 42.5421 7.392C41.7741 6.624 41.3901 5.712 41.3901 4.656Z" fill="#0D0D0D"/>
<path d="M73.2808 36H53.7448V30.384L64.9288 17.904H54.0328V12.384H73.0888V17.712L61.5688 30.432H73.2808V36Z" fill="#0D0D0D"/>
<path d="M77.3275 29.568C77.3275 27.552 77.9835 25.936 79.2955 24.72C80.6075 23.504 82.3035 22.736 84.3835 22.416L90.1915 21.552C91.3755 21.392 91.9675 20.832 91.9675 19.872C91.9675 18.976 91.6155 18.24 90.9115 17.664C90.2395 17.088 89.2635 16.8 87.9835 16.8C86.6395 16.8 85.5675 17.168 84.7675 17.904C83.9995 18.64 83.5675 19.552 83.4715 20.64L77.8075 19.44C78.0315 17.392 79.0395 15.584 80.8315 14.016C82.6235 12.448 84.9915 11.664 87.9355 11.664C91.4555 11.664 94.0475 12.512 95.7115 14.208C97.3755 15.872 98.2075 18.016 98.2075 20.64V32.256C98.2075 33.664 98.3035 34.912 98.4955 36H92.6395C92.4795 35.296 92.3995 34.352 92.3995 33.168C90.8955 35.504 88.5755 36.672 85.4395 36.672C83.0075 36.672 81.0395 35.968 79.5355 34.56C78.0635 33.152 77.3275 31.488 77.3275 29.568ZM86.7835 31.92C88.2875 31.92 89.5195 31.504 90.4795 30.672C91.4715 29.808 91.9675 28.4 91.9675 26.448V25.392L86.6395 26.208C84.6875 26.496 83.7115 27.488 83.7115 29.184C83.7115 29.952 83.9835 30.608 84.5275 31.152C85.0715 31.664 85.8235 31.92 86.7835 31.92Z" fill="#0D0D0D"/>
<path d="M105.602 35.088C104.738 34.224 104.306 33.184 104.306 31.968C104.306 30.752 104.738 29.728 105.602 28.896C106.466 28.032 107.49 27.6 108.674 27.6C109.89 27.6 110.93 28.032 111.794 28.896C112.658 29.728 113.09 30.752 113.09 31.968C113.09 33.184 112.658 34.224 111.794 35.088C110.93 35.92 109.89 36.336 108.674 36.336C107.49 36.336 106.466 35.92 105.602 35.088Z" fill="#0D0D0D"/>
</svg>
